<svg xmlns="http://www.w3.org/2000/svg" width="143" height="39" fill="none"><rect width="36.923" height="36" y="1.5" fill="#964A27" rx="7.385"/><g clip-path="url(#a)"><path fill="#fff" d="M25.702 16h-3.333a.665.665 0 0 1-.666-.665v-3.333a4.001 4.001 0 0 0-8 0v3.333a.665.665 0 0 1-.666.665H9.704a4 4 0 1 0-.002 8.001h3.333c.368 0 .665.298.665.666v3.332a4.001 4.001 0 0 0 8.001 0v-3.332c0-.368.298-.666.666-.666h3.332a4.001 4.001 0 0 0 0-8zm0 4.666h-3.333a4 4 0 0 0-4 4V28a.665.665 0 1 1-1.332 0v-3.332a4 4 0 0 0-4-4H9.704a.665.665 0 1 1 0-1.332h3.333c2.208 0 4-1.792 4-4v-3.333a.665.665 0 1 1 1.332 0v3.333a4 4 0 0 0 4 4h3.332a.665.665 0 1 1 0 1.331"/></g><path fill="#964A27" d="M54.017 30h-4.895v-2.187h4.73q2.53 0 4.184-.971 1.668-.97 2.489-2.776.82-1.804.82-4.293 0-2.46-.807-4.238-.806-1.791-2.42-2.748-1.6-.97-3.992-.97h-5.113V9.628h5.277q2.967 0 5.072 1.217 2.12 1.216 3.24 3.5 1.122 2.27 1.122 5.427 0 3.186-1.135 5.483-1.135 2.283-3.308 3.514Q57.12 30 54.017 30M50.189 9.629V30h-2.461V9.629zm21.949 20.7q-2.202 0-3.815-.985-1.599-.986-2.46-2.748Q65 24.819 65 22.48q0-2.35.848-4.142.847-1.79 2.379-2.803 1.545-1.011 3.61-1.012 1.188 0 2.364.397a5.9 5.9 0 0 1 2.133 1.285q.97.889 1.545 2.352.574 1.463.574 3.595v1.012H66.67v-2.023h10.514l-1.08.765q0-1.53-.479-2.72-.478-1.19-1.435-1.873-.944-.684-2.352-.684t-2.42.697a4.5 4.5 0 0 0-1.531 1.791 5.4 5.4 0 0 0-.533 2.38v1.339q0 1.736.601 2.94.602 1.203 1.682 1.831 1.08.616 2.502.616.916 0 1.668-.26a3.6 3.6 0 0 0 1.299-.807q.546-.545.834-1.34l2.27.657a5 5 0 0 1-1.204 2.023q-.834.862-2.078 1.354-1.245.478-2.79.478m10.355-9.516V30H80.17V14.715h2.242v2.406h.22a4.35 4.35 0 0 1 1.626-1.887q1.095-.71 2.83-.71 1.545 0 2.707.628 1.163.63 1.805 1.914.656 1.272.656 3.227V30h-2.324v-9.543q0-1.79-.944-2.803-.942-1.025-2.57-1.025-1.12 0-2.01.492A3.6 3.6 0 0 0 83 18.543q-.506.93-.506 2.27m18.887-6.098v1.996h-7.902v-1.996zm-5.605-3.637H98.1v14.547q0 1.19.492 1.75.492.547 1.559.547.232 0 .478-.027.26-.028.561-.082l.492 2.105a4 4 0 0 1-.807.191q-.465.082-.943.082-1.845 0-3.008-1.093-1.149-1.094-1.148-2.844zm11.832 19.278q-1.45 0-2.639-.547a4.53 4.53 0 0 1-1.887-1.614q-.697-1.052-.697-2.543 0-1.312.52-2.119a3.67 3.67 0 0 1 1.38-1.285 7.3 7.3 0 0 1 1.914-.71 24 24 0 0 1 2.12-.37q1.394-.178 2.255-.273.876-.096 1.272-.329.41-.232.41-.793v-.082q0-1.462-.807-2.27-.792-.82-2.419-.82-1.668 0-2.625.739-.957.724-1.34 1.558l-2.242-.793q.602-1.395 1.599-2.173a6.2 6.2 0 0 1 2.188-1.094 9 9 0 0 1 2.338-.315q.738 0 1.695.178.957.164 1.859.711.916.534 1.504 1.627.602 1.08.602 2.898V30h-2.352v-2.078h-.109q-.233.492-.793 1.066-.561.561-1.49.971-.917.396-2.256.396m.355-2.106q1.395 0 2.352-.547t1.449-1.408a3.66 3.66 0 0 0 .492-1.818v-2.16q-.15.177-.656.328-.492.136-1.149.246-.642.109-1.257.191l-.985.11a9 9 0 0 0-1.709.396q-.793.26-1.285.78-.478.52-.478 1.421 0 1.216.902 1.846.916.615 2.324.615m21.074-13.535L123.404 30h-2.407l-5.632-15.285h2.542l4.211 12.195h.164l4.211-12.195zm5.325 15.64q-1.45 0-2.639-.546a4.53 4.53 0 0 1-1.887-1.614q-.697-1.052-.697-2.543 0-1.312.519-2.119a3.7 3.7 0 0 1 1.381-1.285 7.3 7.3 0 0 1 1.914-.71 24 24 0 0 1 2.12-.37q1.394-.178 2.255-.273.876-.096 1.272-.329.41-.232.41-.793v-.082q0-1.462-.807-2.27-.792-.82-2.42-.82-1.668 0-2.625.739-.957.724-1.339 1.558l-2.243-.793q.602-1.395 1.6-2.173a6.2 6.2 0 0 1 2.188-1.094 9 9 0 0 1 2.337-.315q.74 0 1.696.178.957.164 1.859.711.916.534 1.504 1.627.602 1.08.602 2.898V30h-2.352v-2.078h-.109q-.233.492-.793 1.066-.561.561-1.491.971-.915.396-2.255.396m.355-2.105q1.395 0 2.352-.547t1.449-1.408a3.66 3.66 0 0 0 .492-1.818v-2.16q-.15.177-.656.328-.492.136-1.149.246-.642.109-1.257.191l-.985.11a9 9 0 0 0-1.709.396q-.793.26-1.285.78-.478.52-.478 1.421 0 1.216.902 1.846.916.615 2.324.615"/><defs><clipPath id="a"><path fill="#fff" d="M5.702 8h24v24h-24z"/></clipPath></defs></svg>